# AST/ASF file generated using VICON BodyLanguage
# -----------------------------------------------
:version 1.10
:name VICON
:units
  mass 1.0
  length 0.45
  angle deg
:documentation
   .ast/.asf automatically generated from VICON data using
   VICON BodyBuilder and BodyLanguage model FoxedUp or BRILLIANT.MOD
:root
   order TX TY TZ RX RY RZ
   axis XYZ
   position 0 0 0  
   orientation 0 0 0 
:bonedata
  begin
     id 1 
     name lhipjoint
     direction 0.635376 -0.686425 0.353719 
     length 2.47244 
     axis 0 0 0  XYZ
  end
  begin
     id 2 
     name lfemur
     direction 0.34202 -0.939693 0  
     length 7.25268  
     axis 0 0 20  XYZ
    dof rx ry rz
    limits (-160.0 20.0)
           (-70.0 70.0)
           (-60.0 70.0)
  end
  begin
     id 3 
     name ltibia
     direction 0.34202 -0.939693 0   
     length 7.6767   
     axis 0 0 20   XYZ
    dof rx
    limits (-10.0 170.0)
  end
  begin
     id 4 
     name lfoot
     direction 0.0803374 -0.220725 0.972022   
     length 2.22945   
     axis -90 7.62852e-016 20   XYZ
    dof rx rz
    limits (-45.0 90.0)
           (-70.0 20.0)
  end
  begin
     id 5 
     name ltoes
     direction 1.53579e-011 -4.21994e-011 1   
     length 1.11848   
     axis -90 7.62852e-016 20   XYZ
    dof rx
    limits (-90.0 20.0)
  end
  begin
     id 6 
     name rhipjoint
     direction -0.664428 -0.664335 0.342336   
     length 2.55466  
     axis 0 0 0  XYZ 
  end
  begin
     id 7 
     name rfemur
     direction -0.34202 -0.939693 0   
     length 6.83172   
     axis 0 0 -20   XYZ
    dof rx ry rz
    limits (-160.0 20.0)
           (-70.0 70.0)
           (-70.0 60.0)
  end
  begin
     id 8 
     name rtibia
     direction -0.34202 -0.939693 0   
     length 7.62692   
     axis 0 0 -20   XYZ
    dof rx
    limits (-10.0 170.0)
 end
 begin
     id 9 
     name rfoot
     direction -0.0949276 -0.260811 0.960711   
     length 2.19684  
     axis -90 -7.62852e-016 -20   XYZ
    dof rx rz
    limits (-45.0 90.0)
           (-20.0 70.0)
  end
  begin
     id 10 
     name rtoes
     direction -1.53543e-011 -4.2183e-011 1   
     length 1.09848   
     axis -90 -7.62852e-016 -20   XYZ
    dof rx
    limits (-90.0 20.0)
  end
  begin
     id 11 
     name lowerback
     direction 0.0118782 0.999815 -0.0151555   
     length 2.15772   
     axis 0 0 0   XYZ
    dof rx ry rz
    limits (-20.0 45.0)
           (-30.0 30.0)
           (-30.0 30.0)
  end
  begin
     id 12 
     name upperback
     direction 0.00130825 0.999065 0.0432113   
     length 2.14863   
     axis 0 0 0   XYZ
    dof rx ry rz
    limits (-20.0 45.0)
           (-30.0 30.0)
           (-30.0 30.0)
  end
  begin
     id 13 
     name thorax
     direction -0.00347005 0.998773 0.0494011   
     length 2.14936   
     axis 0 0 0   XYZ
    dof rx ry rz
    limits (-20.0 45.0)
           (-30.0 30.0)
           (-30.0 30.0)
  end
  begin
     id 14 
     name lowerneck
     direction -0.0262159 0.99424 0.103921   
     length 1.69373   
     axis 0 0 0   XYZ
    dof rx ry rz
    limits (-20.0 45.0)
           (-30.0 30.0)
           (-30.0 30.0)
  end
  begin
     id 15 
     name upperneck
     direction 0.0353511 0.977394 -0.20845   
     length 1.70857   
     axis 0 0 0   XYZ
    dof rx ry rz
    limits (-20.0 45.0)
           (-30.0 30.0)
           (-30.0 30.0)
  end
  begin
     id 16
     name head
     direction 0.0139214 0.996594 -0.0812836  
     length 1.72777  
     axis 0 0 0   XYZ
    dof rx ry rz
    limits (-20.0 45.0)
           (-30.0 30.0)
           (-30.0 30.0)
  end
  begin
     id 17 
     name lclavicle
     direction 0.841247 0.537205 -0.0609508  
     length 3.55371  
     axis 0 0 0   XYZ
    dof ry rz
    limits (-20.0 10.0)
           (0.0 20.0)
  end
  begin
     id 18 
     name lhumerus
     direction 1 -4.48964e-011 1.60116e-018   
     length 4.91377   
     axis -180 -30 -90   XYZ
    dof rx ry rz
    limits (-60.0 90.0)
           (-90.0 90.0)
           (-90.0 90.0)
  end
  begin
     id 19
     name lradius
     direction 1 -4.48989e-011 -8.93847e-027   
     length 3.00291   
     axis -180 -30 -90   XYZ
    dof rx
    limits (-10.0 170.0)
  end
  begin
     id 20
     name lwrist
     direction 1 -4.48932e-011 -7.31504e-027   
     length 1.50145   
     axis 5.74121e-015 90 90   XYZ
    dof ry
    limits (-180.0 0.0)
 end
  begin
     id 21 
     name lhand
     direction 1 -4.48971e-011 -1.46301e-026   
     length 0.450922   
     axis 9.33524e-015 90 90   XYZ
    dof rx rz
    limits (-90.0 90.0)
           (-45.0 45.0)
  end
  begin
     id 22 
     name lfingers
     direction 1 -4.49039e-011 -2.92602e-026   
     length 0.363545   
     axis 1.86705e-014 90 90   XYZ
    dof rx
    limits (0.0 90.0)
  end
  begin
     id 23
     name lthumb
     direction 0.707107 -6.34941e-011 0.707107   
     length 0.52198   
     axis -90 45 2.85299e-015   XYZ
    dof rx rz
    limits (-45.0 45.0)
           (-45.0 45.0)
  end
  begin
     id 24 
     name rclavicle
     direction -0.825079 0.56158 -0.0622297   
     length 3.39909  
     axis 0 0 0   XYZ 
    dof ry rz
    limits (-10.0 20.0)
           (-20.0 0.0)
  end
  begin
     id 25 
     name rhumerus
     direction -1 -4.48965e-011 1.61691e-027  
     length 4.86725   
     axis -180 30 90   XYZ
    dof rx ry rz
    limits (-90.0 60.0)
           (-90.0 90.0)
           (-90.0 90.0)
  end
  begin
     id 26 
     name rradius
     direction -1 -4.48964e-011 -2.25776e-027   
     length 3.17144   
     axis -180 30 90   XYZ
    dof rx
    limits (-10.0 170.0)
  end
  begin
     id 27 
     name rwrist
     direction -1 -4.48961e-011 -7.31504e-027   
     length 1.58572   
     axis 5.74121e-015 -90 -90   XYZ
    dof ry
    limits (-180.0 0.0)
  end
  begin
     id 28
     name rhand
     direction -1 -4.49013e-011 -1.46301e-026   
     length 0.419368   
     axis 9.33524e-015 -90 -90   XYZ
    dof rx rz
    limits (-90.0 90.0)
           (-45.0 45.0)
  end
  begin
     id 29
     name rfingers
     direction -1 -4.489e-011 -2.92602e-026   
     length 0.338105   
     axis 1.86705e-014 -90 -90   XYZ
    dof rx
    limits (0.0 90.0)
  end
  begin
     id 30
     name rthumb
     direction -0.707107 -6.35022e-011 0.707107   
     length 0.485453   
     axis -90 -45 -2.85299e-015   XYZ
    dof rx rz
    limits (-45.0 45.0)
           (-45.0 45.0)
  end
:hierarchy
  begin
    root lhipjoint rhipjoint lowerback
    lhipjoint lfemur
    lfemur ltibia
    ltibia lfoot
    lfoot ltoes
    rhipjoint rfemur
    rfemur rtibia
    rtibia rfoot
    rfoot rtoes
    lowerback upperback
    upperback thorax
    thorax lowerneck lclavicle rclavicle
    lowerneck upperneck
    upperneck head
    lclavicle lhumerus
    lhumerus lradius
    lradius lwrist
    lwrist lhand lthumb
    lhand lfingers
    rclavicle rhumerus
    rhumerus rradius
    rradius rwrist
    rwrist rhand rthumb
    rhand rfingers
  end

#!OML:ASF H:\Swim 2\Project 1\Capture day 1\Session 1\male.ASF
:FULLY-SPECIFIED
:DEGREES
811
root 7.96424 8.90077 12.3741 77.5396 1.0758 178.217
lowerback 24.1854 -2.48372 6.61036
upperback -1.23331 -2.46224 -11.271
thorax -15.8456 -2.06372 -15.885
lowerneck -2.85263 -11.4403 4.21984
upperneck 36.7035 -18.5194 17.5412
head 15.0383 -1.76272 5.20387
rclavicle -1.00187e-013 4.18939e-014
rhumerus 20.655 -13.0731 35.9695
rradius 36.5742
rwrist 35.1276
rhand -41.4765 22.5841
rfingers 7.12502
rthumb -14.3908 -6.89704
lclavicle -1.00187e-013 4.18939e-014
lhumerus -158.932 -72.595 223.704
lradius 23.9175
lwrist 58.1925
lhand -17.5158 34.7213
lfingers 7.12502
lthumb 8.73758 64.5204
rfemur 38.317 10.2247 23.0695
rtibia 14.177
rfoot 7.8869 -7.98983
rtoes 23.2665
lfemur 15.834 0.149393 -32.2566
ltibia 25.0569
lfoot -0.970439 15.6362
ltoes -2.45854
812
root 7.96548 8.90985 12.4064 78.1606 0.888974 178.028
lowerback 23.4831 -2.14774 7.26022
upperback -1.24518 -1.79901 -12.0596
thorax -15.4005 -1.79671 -17.5808
lowerneck -2.96356 -12.1454 5.64581
upperneck 36.2211 -19.6084 18.0211
head 14.9097 -1.85594 5.03628
rclavicle -2.64881e-014 -6.42944e-015
rhumerus 17.6888 -11.2887 36.4736
rradius 37.0671
rwrist 34.4633
rhand -41.7624 22.6795
rfingers 7.12502
rthumb -14.6662 -6.78179
lclavicle -2.64881e-014 -6.42944e-015
lhumerus -169.928 -69.6123 233.964
lradius 24.343
lwrist 59.3003
lhand -17.6472 34.5206
lfingers 7.12502
lthumb 8.61077 64.325
rfemur 38.223 10.1557 22.7129
rtibia 14.0987
rfoot 8.55159 -7.20661
rtoes 23.2438
lfemur 14.9627 -0.0801661 -32.2886
ltibia 24.4263
lfoot -0.807602 16.3203
ltoes -2.90298
813
root 7.96649 8.91758 12.433 78.6366 0.71301 177.849
lowerback 22.9773 -1.85783 7.80673
upperback -1.25993 -1.20523 -12.7647
thorax -15.0418 -1.54261 -19.1028
lowerneck -3.13601 -12.7951 7.1238
upperneck 35.8227 -20.5791 18.2752
head 14.769 -1.92589 4.7848
rclavicle 7.55382e-015 -5.38955e-014
rhumerus 14.9855 -9.60652 36.8346
rradius 37.4927
rwrist 33.8338
rhand -42.0931 22.5796
rfingers 7.12502
rthumb -14.9849 -6.85824
lclavicle 7.55382e-015 -5.38955e-014
lhumerus -177.643 -66.5178 240.951
lradius 24.844
lwrist 60.7842
lhand -18.0678 34.3666
lfingers 7.12502
lthumb 8.20494 64.1872
rfemur 38.0852 10.0736 22.3765
rtibia 14.2294
rfoot 9.15591 -6.38775
rtoes 23.155
lfemur 14.3174 -0.378807 -32.34
ltibia 23.8411
lfoot -0.600151 16.9486
ltoes -3.36814
814
root 7.96739 8.924 12.4534 78.9581 0.541543 177.684
lowerback 22.6592 -1.62278 8.23068
upperback -1.26697 -0.704945 -13.3714
thorax -14.7719 -1.31665 -20.4036
lowerneck -3.37375 -13.3611 8.53988
upperneck 35.5498 -21.42 18.3622
head 14.6569 -1.9705 4.50036
rclavicle -2.3059e-014 1.20016e-013
rhumerus 12.554 -8.07352 37.0951
rradius 37.8656
rwrist 33.2827
rhand -42.4477 22.3892
rfingers 7.12502
rthumb -15.3264 -7.02288
lclavicle -2.3059e-014 1.20016e-013
lhumerus -183.293 -63.5779 245.926
lradius 25.3815
lwrist 62.5254
lhand -18.6891 34.2539
lfingers 7.12502
lthumb 7.60528 64.0972
rfemur 37.9219 9.98822 22.0673
rtibia 14.5433
rfoot 9.61014 -5.63066
rtoes 23.4177
lfemur 13.905 -0.731021 -32.4145
ltibia 23.3196
lfoot -0.439434 17.5174
ltoes -3.72674
815
root 7.96865 8.92901 12.4709 79.2377 0.37565 177.537
lowerback 22.3987 -1.43197 8.53156
upperback -1.28727 -0.298015 -13.8727
thorax -14.5551 -1.12353 -21.4614
lowerneck -3.63999 -13.8256 9.79295
upperneck 35.3683 -22.1196 18.3839
head 14.578 -1.99213 4.24076
rclavicle 8.8658e-014 -1.50232e-013
rhumerus 10.3897 -6.73359 37.2734
rradius 38.1937
rwrist 32.8487
rhand -42.8027 22.3
rfingers 7.12502
rthumb -15.6683 -7.0856
lclavicle 8.8658e-014 -1.50232e-013
lhumerus -187.649 -60.8769 249.686
lradius 25.9168
lwrist 64.3365
lhand -19.3811 34.1477
lfingers 7.12502
lthumb 6.93732 64.014
rfemur 37.6223 9.90495 21.7682
rtibia 14.9906
rfoot 9.92636 -4.97901
rtoes 24.0582
lfemur 13.5952 -1.11136 -32.4894
ltibia 22.8799
lfoot -0.317286 17.9769
ltoes -3.91521
816
root 7.97008 8.93246 12.4843 79.4436 0.220222 177.41
lowerback 22.2163 -1.29028 8.73115
upperback -1.30367 0.00944484 -14.2723
thorax -14.3946 -0.971178 -22.2837
lowerneck -3.90929 -14.1847 10.8628
upperneck 35.2452 -22.6721 18.3657
head 14.5189 -1.99653 4.01389
rclavicle 1.21259e-013 -7.70788e-014
rhumerus 8.52052 -5.52105 37.4442
rradius 38.432
rwrist 32.448
rhand -43.128 22.4076
rfingers 7.12502
rthumb -15.9816 -6.95316
lclavicle 1.21259e-013 -7.70788e-014
lhumerus -191.149 -58.399 252.679
lradius 26.4051
lwrist 65.9761
lhand -19.9797 34.0442
lfingers 7.12502
lthumb 6.3594 63.9287
rfemur 37.2422 9.81824 21.49
rtibia 15.5151
rfoot 10.1182 -4.45877
rtoes 24.951
lfemur 13.4165 -1.50065 -32.5614
ltibia 22.537
lfoot -0.242399 18.3275
ltoes -3.96995
817
root 7.97167 8.9342 12.493 79.5624 0.082424 177.306
lowerback 22.1172 -1.19896 8.85716
upperback -1.30396 0.219031 -14.5792
thorax -14.2865 -0.863058 -22.8944
lowerneck -4.13186 -14.4417 11.7295
upperneck 35.1082 -23.069 18.3724
head 14.4497 -1.98966 3.84379
rclavicle 3.65764e-014 1.39447e-013
rhumerus 6.8432 -4.60084 37.5251
rradius 38.6843
rwrist 32.2359
rhand -43.4054 22.7644
rfingers 7.12502
rthumb -16.2487 -6.57467
lclavicle 3.65764e-014 1.39447e-013
lhumerus -194.039 -56.0498 255.135
lradius 26.8151
lwrist 67.2485
lhand -20.4379 33.9464
lfingers 7.12502
lthumb 5.91703 63.8438
rfemur 36.8213 9.73272 21.2536
rtibia 16.0623
rfoot 10.184 -4.09465
rtoes 25.9192
lfemur 13.3774 -1.87641 -32.62
ltibia 22.3038
lfoot -0.225063 18.5495
ltoes -3.92545
